<mxfile host="app.diagrams.net" modified="2021-06-16T20:51:31.688Z" agent="5.0 (X11)" etag="5IhNzs6VSBHkJWANnetZ" version="14.7.6" type="github">
  <diagram id="Ienm0UCJxK3TFsqvx7uQ" name="Title">
    <mxGraphModel dx="2076" dy="1132" grid="1" gridSize="10" guides="1" tooltips="1" connect="1" arrows="1" fold="1" page="1" pageScale="1" pageWidth="1600" pageHeight="900" math="0" shadow="0">
      <root>
        <mxCell id="0" />
        <mxCell id="1" parent="0" />
        <mxCell id="HD4ux19Fs1f1JVnRfOC8-1" value="&lt;font style=&quot;font-size: 72px&quot;&gt;&lt;b&gt;PrettyPrinting&lt;/b&gt;&lt;/font&gt;&lt;br style=&quot;font-size: 64px&quot;&gt;Optimal layout for code and data" style="text;html=1;align=center;verticalAlign=middle;resizable=0;points=[];autosize=1;strokeColor=none;fontFamily=Ubuntu;fontSource=https%3A%2F%2Ffonts.googleapis.com%2Fcss%3Ffamily%3DUbuntu;fontSize=64;" vertex="1" parent="1">
          <mxGeometry x="315" y="150" width="970" height="160" as="geometry" />
        </mxCell>
        <mxCell id="HD4ux19Fs1f1JVnRfOC8-2" value="Kyrylo Simonov" style="text;html=1;align=left;verticalAlign=middle;resizable=0;points=[];autosize=1;strokeColor=none;fontSize=48;fontFamily=Ubuntu;fontSource=https%3A%2F%2Ffonts.googleapis.com%2Fcss%3Ffamily%3DUbuntu;" vertex="1" parent="1">
          <mxGeometry x="1050" y="630" width="350" height="60" as="geometry" />
        </mxCell>
        <mxCell id="HD4ux19Fs1f1JVnRfOC8-3" value="JuliaCon 2021" style="text;html=1;align=center;verticalAlign=middle;resizable=0;points=[];autosize=1;strokeColor=none;fontSize=32;fontFamily=Ubuntu;fontSource=https%3A%2F%2Ffonts.googleapis.com%2Fcss%3Ffamily%3DUbuntu;" vertex="1" parent="1">
          <mxGeometry x="688" y="795" width="225" height="45" as="geometry" />
        </mxCell>
        <mxCell id="HD4ux19Fs1f1JVnRfOC8-4" value="https://github.com/MechanicalRabbit/PrettyPrinting.jl" style="text;html=1;align=center;verticalAlign=middle;resizable=0;points=[];autosize=1;strokeColor=none;fontSize=48;fontFamily=Ubuntu;fontSource=https%3A%2F%2Ffonts.googleapis.com%2Fcss%3Ffamily%3DUbuntu;" vertex="1" parent="1">
          <mxGeometry x="200" y="440" width="1200" height="60" as="geometry" />
        </mxCell>
      </root>
    </mxGraphModel>
  </diagram>
</mxfile>
